<svg width="175" height="50" viewBox="0 0 175 50" fill="none" xmlns="http://www.w3.org/2000/svg">
<g clip-path="url(#clip0)">
<path d="M9.27177 0.308302C5.7013 1.80402 1.77613 6.02428 0.536452 11.3254C-1.03356 18.0403 5.49988 20.8802 6.03574 19.9503C6.66644 18.8562 4.86506 18.4863 4.49421 15.0021C4.01502 10.5021 6.10709 5.47374 8.74031 3.26745C9.22949 2.85755 9.20629 3.42806 9.20629 4.48334C9.20629 6.37047 9.10206 23.3111 9.10206 26.8466C9.10206 31.6307 8.90445 33.1414 8.54946 34.6341C8.19006 36.1469 7.61191 37.169 8.04971 37.5627C8.53918 38.0032 10.6289 36.9555 11.8386 35.2672C13.2891 33.2424 13.7968 30.8106 13.8881 28.1697C13.9982 24.9862 13.9935 19.9347 13.9982 17.0534C14.0023 14.4108 14.0426 6.67261 13.9518 2.02072C13.9295 0.879695 10.7651 -0.317411 9.27177 0.308302Z" fill="#343433"/>
<path d="M136.059 22.6971C135.944 25.1841 135.393 27.1282 134.71 28.4995C133.387 31.1541 130.642 31.9783 129.477 28.1624C128.842 26.0823 128.812 22.6082 129.269 19.7054C129.734 16.7483 131.032 14.515 133.181 14.7164C135.3 14.9155 136.292 17.6468 136.059 22.6971ZM100.324 38.1277C100.296 42.2601 99.6452 45.8835 98.2505 46.9358C96.2723 48.428 93.6135 47.3087 94.1641 44.2932C94.6512 41.6247 96.955 38.8996 100.33 35.5699C100.33 35.5699 100.337 36.3292 100.324 38.1277ZM99.784 22.6728C99.6631 24.9381 99.0758 27.2137 98.4352 28.4995C97.1127 31.1541 94.3479 31.9839 93.2022 28.1624C92.4188 25.5512 92.6064 22.1719 92.994 20.0425C93.497 17.2798 94.7161 14.7167 96.9057 14.7167C99.0344 14.7167 100.084 17.0522 99.784 22.6728ZM79.0833 22.6384C78.9535 25.0373 78.4854 27.0428 77.7344 28.4995C76.3755 31.1359 73.687 31.9719 72.5014 28.1624C71.6466 25.4152 71.9376 21.6698 72.2932 19.6464C72.8208 16.6438 74.1422 14.515 76.2049 14.7167C78.3237 14.9237 79.3537 17.6468 79.0833 22.6384ZM173.95 25.4405C173.432 25.4405 173.196 25.9746 173 26.8731C172.322 29.9981 171.609 30.7034 170.69 30.7034C169.662 30.7034 168.74 29.1563 168.502 26.0588C168.316 23.6232 168.346 19.1396 168.584 14.6794C168.633 13.763 168.38 12.8563 165.922 11.9634C164.865 11.5794 163.327 11.0138 162.562 12.8616C160.399 18.082 159.553 22.2265 159.354 23.9098C159.343 23.997 159.236 24.0149 159.218 23.8112C159.091 22.4628 158.807 20.0122 158.772 14.8641C158.765 13.8596 158.552 13.0046 157.444 12.3046C156.724 11.8504 154.54 11.047 153.753 12.0028C153.072 12.7844 152.282 14.8879 151.462 17.3814C150.796 19.408 150.331 20.7789 150.331 20.7789C150.331 20.7789 150.34 15.3107 150.348 13.2366C150.352 12.4541 149.815 12.1933 149.653 12.1461C148.925 11.9349 147.489 11.5817 146.88 11.5817C146.129 11.5817 145.944 12.0016 145.944 12.6138C145.944 12.6943 145.826 19.8132 145.826 24.7913C145.826 25.0077 145.826 25.2435 145.827 25.4942C145.411 27.7821 144.063 30.8881 142.597 30.8881C141.128 30.8881 140.436 29.5897 140.436 23.6549C140.436 20.1931 140.54 18.6874 140.591 16.1834C140.62 14.7411 140.678 13.6336 140.674 13.3822C140.664 12.6115 139.331 12.223 138.711 12.0794C138.088 11.9349 137.546 11.8786 137.123 11.9026C136.525 11.9367 136.102 12.329 136.102 12.869C136.102 13.1588 136.105 13.709 136.105 13.709C135.334 12.4978 134.094 11.6548 133.27 11.4105C131.048 10.7508 128.73 11.3357 126.981 13.7821C125.592 15.7262 124.754 17.9281 124.424 21.0916C124.183 23.4045 124.262 25.7497 124.69 27.7331C124.172 29.9711 123.211 30.8881 122.159 30.8881C120.631 30.8881 119.524 28.3946 119.652 24.0819C119.737 21.2455 120.305 19.2547 120.925 16.3748C121.19 15.1472 120.975 14.5044 120.436 13.8884C119.941 13.3235 118.888 13.0349 117.373 13.3898C116.295 13.643 114.752 13.9151 113.341 14.1242C113.341 14.1242 113.426 13.7845 113.496 13.1855C113.863 10.0443 110.45 10.2992 109.361 11.3025C108.711 11.9015 108.268 12.6079 108.1 13.8781C107.834 15.8939 109.478 16.8446 109.478 16.8446C108.938 19.314 107.616 22.5392 106.251 24.8711C105.52 26.1205 104.961 27.0463 104.239 28.0305C104.236 27.6641 104.234 27.2974 104.233 26.9327C104.216 21.7417 104.285 17.6565 104.316 16.1837C104.346 14.7414 104.403 13.6632 104.4 13.4119C104.392 12.8484 104.063 12.6352 103.378 12.3657C102.773 12.1273 102.057 11.9622 101.314 11.9047C100.377 11.8319 99.8122 12.3287 99.8269 12.9165C99.8299 13.0275 99.8299 13.709 99.8299 13.709C99.0591 12.4978 97.8194 11.6548 96.9946 11.4105C94.7731 10.751 92.4549 11.3357 90.7064 13.7821C89.3169 15.7262 88.407 18.4543 88.1492 21.0675C87.909 23.5031 87.9534 25.5726 88.2807 27.3164C87.9275 29.0623 86.9119 30.8881 85.7635 30.8881C84.2954 30.8881 83.46 29.5897 83.46 23.6549C83.46 20.1931 83.564 18.6874 83.6151 16.1837C83.6447 14.7414 83.702 13.6336 83.6987 13.3825C83.6879 12.6117 82.3551 12.2233 81.735 12.0794C81.0861 11.9294 80.5258 11.8742 80.0957 11.9062C79.5281 11.9482 79.1291 12.4564 79.1291 12.8355V13.709C78.3583 12.4978 77.1186 11.6548 76.2938 11.4105C74.0723 10.751 71.767 11.3451 70.0056 13.7821C68.8569 15.3712 67.927 17.133 67.4484 21.0329C67.3101 22.1598 67.249 23.2154 67.257 24.2017C66.7989 27.0031 64.7758 30.2315 63.121 30.2315C62.1526 30.2315 61.2303 28.3532 61.2303 24.3503C61.2303 19.018 61.5604 11.4264 61.6162 10.6947C61.6162 10.6947 63.707 10.6591 64.112 10.6544C65.1549 10.643 66.0995 10.6677 67.4886 10.5966C68.1854 10.5611 68.8566 8.06057 68.1375 7.75109C67.8116 7.61103 65.5081 7.4883 64.595 7.46892C63.8271 7.45159 61.6896 7.29333 61.6896 7.29333C61.6896 7.29333 61.8813 2.25415 61.9259 1.72181C61.9638 1.27815 61.3898 1.04971 61.0606 0.911116C60.2602 0.572567 59.544 0.410487 58.6952 0.235487C57.5224 -0.00645958 56.9904 0.230201 56.8865 1.22001C56.7299 2.72219 56.6489 7.12215 56.6489 7.12215C55.7883 7.12215 52.8485 6.9539 51.9876 6.9539C51.1878 6.9539 50.3245 10.3937 51.4303 10.436C52.7026 10.4853 54.9198 10.5282 56.3896 10.5722C56.3896 10.5722 56.3242 18.2893 56.3242 20.672C56.3242 20.9254 56.3253 21.1694 56.3268 21.4064C55.5179 25.6225 52.6685 27.9002 52.6685 27.9002C53.2805 25.1107 52.0305 23.016 49.779 21.2428C48.9495 20.5895 47.312 19.3525 45.4797 17.9968C45.4797 17.9968 46.5409 16.9512 47.482 14.8468C48.1488 13.3561 48.1776 11.6507 46.5409 11.2746C43.8366 10.6527 41.6068 12.6388 40.9418 14.759C40.4265 16.4018 40.7013 17.6204 41.7108 18.8865C41.7845 18.979 41.8643 19.0735 41.9469 19.1687C41.3364 20.3452 40.4978 21.9293 39.7875 23.1578C37.8162 26.5686 36.3269 29.2664 35.2014 29.2664C34.3018 29.2664 34.3138 26.5272 34.3138 23.9627C34.3138 21.752 34.4771 18.4281 34.6074 14.9869C34.6506 13.8488 34.0815 13.2005 33.1276 12.6132C32.5479 12.2565 31.3109 11.555 30.5945 11.555C29.5222 11.555 26.4282 11.7009 23.5049 20.157C23.1364 21.2229 22.4126 23.1649 22.4126 23.1649L22.4752 12.9961C22.4752 12.7577 22.348 12.5272 22.0573 12.3695C21.5646 12.102 20.2489 11.555 19.0791 11.555C18.5218 11.555 18.2435 11.8143 18.2435 12.331L18.1416 28.2402C18.1416 29.4493 18.173 30.8593 18.2925 31.4759C18.4117 32.0934 18.6046 32.5958 18.8433 32.8947C19.082 33.193 19.3581 33.4206 19.8129 33.5146C20.2363 33.6018 22.5553 33.8995 22.6757 33.0133C22.8202 31.9513 22.8258 30.8026 24.0434 26.5187C25.9391 19.849 28.4102 16.5948 29.5724 15.4391C29.7755 15.237 30.0075 15.225 29.9964 15.5556C29.9467 17.0179 29.7723 20.672 29.6549 23.7759C29.3401 32.0831 30.8514 33.6229 33.011 33.6229C34.6632 33.6229 36.9922 31.9812 39.4889 27.8256C41.0454 25.2358 42.5567 22.6966 43.6425 20.8664C44.3992 21.567 45.2484 22.3207 46.0969 23.1261C48.0689 24.9977 48.7164 26.7762 48.2868 28.4633C47.9582 29.7532 46.7209 31.0825 44.5187 29.7905C43.8768 29.4135 43.6029 29.1222 42.9575 28.6974C42.6107 28.4692 42.0813 28.4008 41.7639 28.6401C40.9394 29.2617 40.4679 30.0524 40.1986 31.0314C39.9367 31.9839 40.8907 32.4875 41.8796 32.9279C42.7311 33.307 44.5613 33.6505 45.7284 33.6896C50.2761 33.8417 53.9191 31.4938 56.4551 25.4375C56.9091 30.6682 58.8411 33.6276 62.1978 33.6276C64.442 33.6276 66.692 30.7269 67.676 27.8732C67.9584 29.0365 68.3766 30.048 68.9165 30.9036C71.5031 35.0018 76.5208 34.1197 79.0413 30.6397C79.8205 29.5644 79.9392 29.178 79.9392 29.178C80.3068 32.464 82.9529 33.612 84.468 33.612C86.1649 33.612 87.9169 32.8099 89.1449 30.0454C89.2888 30.3455 89.4458 30.632 89.6173 30.9036C92.2038 35.0018 97.2216 34.1197 99.7421 30.6397C99.861 30.4764 99.9641 30.3284 100.054 30.1954L100.128 32.3539C100.128 32.3539 98.6903 33.6728 97.8077 34.482C93.918 38.0469 90.9633 40.7509 90.746 43.8997C90.4694 47.9148 93.7237 49.407 96.1895 49.6025C98.8034 49.8101 101.046 48.3649 102.422 46.3424C103.633 44.5622 104.426 40.7307 104.368 36.9464C104.345 35.431 104.306 33.5043 104.277 31.4389C105.642 29.8534 107.18 27.8491 108.597 25.5036C110.14 22.9473 111.794 19.5143 112.642 16.8426C112.642 16.8426 114.079 16.8549 115.613 16.7545C116.103 16.7225 116.244 16.8226 116.154 17.1823C116.044 17.6169 114.216 24.6691 115.884 29.3671C117.027 32.5832 119.601 33.6179 121.128 33.6179C122.915 33.6179 124.624 32.2684 125.54 30.2644C125.651 30.4879 125.766 30.704 125.892 30.9036C128.479 35.0018 133.479 34.1144 136.017 30.6397C136.59 29.8557 136.915 29.178 136.915 29.178C137.46 32.5788 140.104 33.6294 141.619 33.6294C143.197 33.6294 144.694 32.9825 145.909 30.1076C145.96 31.3734 146.04 32.4085 146.166 32.7347C146.243 32.9343 146.692 33.1848 147.018 33.3058C148.461 33.8411 149.934 33.588 150.478 33.4779C150.856 33.4015 151.15 33.0988 151.19 32.3172C151.296 30.2647 151.231 26.8164 151.853 24.2534C152.897 19.9523 153.872 18.284 154.334 17.458C154.593 16.9953 154.884 16.9189 154.895 17.4087C154.917 18.3997 154.966 21.3098 155.371 25.2197C155.668 28.0951 156.065 29.7949 156.37 30.3328C157.24 31.8711 158.316 31.944 159.191 31.944C159.748 31.944 160.913 31.7901 160.809 30.8112C160.758 30.334 160.847 27.3852 161.877 23.1479C162.549 20.3807 163.67 17.8808 164.075 16.9665C164.224 16.6294 164.293 16.8951 164.291 16.9468C164.205 18.8524 164.014 25.0855 164.791 28.4945C165.843 33.1126 168.887 33.6294 169.948 33.6294C172.213 33.6294 174.065 31.9067 174.689 27.3737C174.839 26.2829 174.617 25.4405 173.95 25.4405Z" fill="#343433"/>
</g>
<defs>
<clipPath id="clip0">
<rect width="175" height="49.9023" fill="white"/>
</clipPath>
</defs>
</svg>
